<svg xmlns="http://www.w3.org/2000/svg" width="1024" height="1024" viewBox="0 0 256 256">
	<path d="m202.9 112.7c-22.5 16.1-54.5 12.8-74.9 6.3l14.8-11.8 14.1-11.3 49.1-39.3-51.2 35.9-14.3 10-14.9 10.5c0.7-21.2 7-49.9 28.6-65.4 1.8-1.3 3.9-2.6 6.1-3.8 2.7-1.5 5.7-2.9 8.8-4.1 27.1-11.1 68.5-15.3 85.2-9.5 0.1 16.2-15.9 45.4-33.9 65.9-2.4 2.8-4.9 5.4-7.4 7.8-3.4 3.5-6.8 6.4-10.1 8.8z" fill="#95c980"/>
	<path d="m213.1 104c-22.2 12.6-51.4 9.3-70.3 3.2l14.1-11.3 49.1-39.3-51.2 35.9-14.3 10c0.5-18.1 4.9-42.1 19.7-58.6 2.7-1.5 5.7-2.9 8.8-4.1 27.1-11.1 68.5-15.3 85.2-9.5 0.1 16.2-15.9 45.4-33.9 65.9-2.3 2.8-4.8 5.4-7.2 7.8z" fill="#72b755"/>
	<path d="m220.5 96.2c-21.1 8.6-46.6 5.3-63.7-0.2l49.2-39.4-51.2 35.9c0.3-15.8 3.5-36.6 14.3-52.8 27.1-11.1 68.5-15.3 85.2-9.5 0.1 16.2-15.9 45.4-33.8 66z" fill="#4fa52b"/>
</svg>
